<svg width="612" height="381" viewBox="0 0 612 381" fill="none" xmlns="http://www.w3.org/2000/svg">
<path d="M436.11 367.94C372.79 367.94 320.29 330.81 295.67 268.61C286.26 244.83 281.47 220.72 281.45 196.94C281.43 176.86 285.55 165.18 285.72 164.69L286.86 161.52L288.45 164.49C288.63 164.83 307.06 199.21 318.31 223.24C320.29 227.47 328.68 241.26 343.5 254.08C362.9 270.85 385.24 279.36 409.9 279.37C440.91 279.37 459.84 263.82 470.27 250.77C482.54 235.42 489.87 214.91 489.87 195.91C489.87 176.91 482.03 156.89 468.9 141.51C457.92 128.64 438.24 113.31 406.83 113.31C363.46 113.31 339.3 139.31 328.98 150.41L327.05 152.49L326.3 149.99C326.25 149.83 321.52 134.14 315.99 119.94C311.51 108.42 305.53 98.8199 305.47 98.7199L304.98 97.9399L305.45 97.1499C333.34 50.5999 380.17 23.8999 433.91 23.8999C475.61 23.8999 515.12 41.9099 545.14 74.6099C575.22 107.37 591.79 150.59 591.79 196.32C591.79 290.95 521.94 367.94 436.09 367.94H436.11Z" fill="#8F1739"/>
<path d="M433.93 25.3999C519.09 25.3999 590.31 102.36 590.31 196.32C590.31 290.28 521.27 366.45 436.11 366.45C369.99 366.45 320.15 326.39 297.06 268.07C288.52 246.49 282.97 222.43 282.95 196.95C282.93 176.9 287.13 165.21 287.13 165.21C287.13 165.21 305.59 199.61 316.95 223.89C320.51 231.5 350.59 280.85 409.9 280.88H409.95C465.38 280.88 491.38 231.44 491.38 195.92C491.38 160.4 462.69 111.81 406.85 111.81C362.6 111.81 337.75 138.79 327.75 149.55C327.75 149.55 323.01 133.82 317.4 119.39C312.81 107.59 306.75 97.9199 306.75 97.9199C332.75 54.5199 377.58 25.3999 433.93 25.3999ZM433.93 22.3999C379.64 22.3999 332.35 49.3599 304.18 96.3799L303.24 97.9599L304.21 99.5199C304.27 99.6099 310.18 109.12 314.6 120.49C320.1 134.64 324.82 150.27 324.87 150.43L326.38 155.44L329.94 151.61L330.09 151.45C340.27 140.49 364.12 114.83 406.84 114.83C437.68 114.83 456.99 129.88 467.77 142.51C480.67 157.63 488.38 177.6 488.38 195.94C488.38 214.28 481.18 234.77 469.11 249.86C458.89 262.65 440.33 277.89 409.96 277.89C385.63 277.88 363.62 269.49 344.5 252.97C329.88 240.33 321.63 226.78 319.69 222.63C308.42 198.56 289.98 164.15 289.79 163.8L286.6 157.86L284.32 164.21C284.14 164.71 279.94 176.63 279.96 196.97C279.98 220.94 284.8 245.24 294.28 269.19C306.14 299.14 324.95 324.17 348.68 341.56C373.58 359.81 403.82 369.46 436.12 369.46C457.38 369.46 478 364.87 497.41 355.81C516.14 347.07 532.95 334.57 547.38 318.65C577.01 285.96 593.32 242.53 593.32 196.34C593.32 173.03 589.06 150.34 580.65 128.9C572.55 108.24 560.99 89.6399 546.27 73.6199C531.57 57.6099 514.51 45.0199 495.56 36.1999C475.93 27.0599 455.19 22.4299 433.93 22.4299V22.3999Z" fill="white"/>
<path d="M177.51 367.97C176.44 367.97 175.36 367.96 174.29 367.94C132.58 367.09 93.7304 348.84 64.8904 316.56C36.0704 284.3 20.1904 241.32 20.1904 195.52C20.1904 149.72 36.7004 106.74 66.6904 74.2099C96.5904 41.7699 136.04 23.8999 177.77 23.8999C222.39 23.8999 262.76 42.6099 291.45 76.5899C318.44 108.55 333.35 150.93 333.42 195.92C333.45 216.99 329.56 235.47 329.52 235.66L328.85 238.78L326.87 236.28C326.77 236.16 317.21 223.98 309.29 206.09C303.18 192.27 295.31 178.15 291.17 170.97C290.93 170.56 290.63 170.01 290.26 169.33C276.04 143.4 249.53 112.49 203.97 112.47C148.84 112.47 118.37 161.82 118.37 195.93C118.37 214.61 126.21 234.95 139.34 250.33C150.32 263.2 170 278.53 201.41 278.53C246.87 278.53 276.58 250.36 284.61 241.73L286.39 239.81L287.14 242.32C287.19 242.47 291.72 257.57 297.24 271.77C301.73 283.32 307.82 293.96 307.88 294.07L308.32 294.83L307.87 295.59C281.12 340.24 231.17 367.97 177.52 367.97H177.51Z" fill="#D8005B"/>
<path d="M177.76 25.3999C272.46 25.3999 331.77 107.65 331.91 195.92C331.94 217.07 328.04 235.34 328.04 235.34C328.04 235.34 318.59 223.4 310.66 205.47C304.88 192.41 297.34 178.66 292.47 170.21C288.28 162.94 263.28 110.99 203.97 110.96C203.95 110.96 203.94 110.96 203.92 110.96C148.49 110.96 116.87 160.4 116.87 195.92C116.87 231.44 145.56 280.03 201.4 280.03C245.65 280.03 275.69 253.51 285.69 242.75C285.69 242.75 290.22 257.89 295.83 272.32C300.42 284.12 306.57 294.82 306.57 294.82C281.06 337.39 232.53 366.47 177.51 366.47C176.45 366.47 175.38 366.46 174.32 366.44C88.9897 364.7 21.6897 289.48 21.6897 195.52C21.6897 101.56 92.5997 25.3999 177.76 25.3999ZM177.76 22.3999C156.49 22.3999 135.78 26.9899 116.19 36.0499C97.2697 44.7999 80.2397 57.2999 65.5797 73.1999C50.8997 89.1299 39.3697 107.64 31.2997 128.21C22.9297 149.57 18.6797 172.22 18.6797 195.53C18.6797 241.69 34.6897 285.03 63.7597 317.57C92.8797 350.16 132.12 368.59 174.25 369.45C175.34 369.47 176.42 369.48 177.51 369.48C231.68 369.48 282.12 341.47 309.15 296.37L310.05 294.86L309.17 293.33C309.11 293.22 303.07 282.67 298.62 271.23C293.12 257.08 288.6 242.04 288.56 241.89L287.06 236.87L283.49 240.71C275.57 249.23 246.25 277.03 201.39 277.03C170.55 277.03 151.24 261.98 140.46 249.35C127.56 234.23 119.85 214.26 119.85 195.92C119.85 162.42 149.78 113.96 203.9 113.96C226.9 113.97 247.24 121.98 264.4 137.77C278.16 150.43 285.98 164.68 288.92 170.04C289.3 170.73 289.6 171.29 289.85 171.71C293.98 178.87 301.82 192.94 307.9 206.69C315.9 224.76 325.28 236.71 325.67 237.21L329.63 242.21L330.96 235.98C331.12 235.22 334.93 217.16 334.89 195.93C334.85 173.58 331.15 151.76 323.89 131.06C316.59 110.26 306.05 91.6099 292.56 75.6399C278.53 59.0199 261.87 46.0099 243.05 36.9399C223.03 27.2999 201.05 22.4099 177.73 22.4099L177.76 22.3999Z" fill="white"/>
</svg>
